# xmcd CD database file
#
# Track frame offsets:
#	150
#	15867
#	35895
#
# Disc length: 706 seconds
#
# Revision: 1
# Processed by: cddbd v1.5PL3 Copyright (c) Steve Scherf et al.
# Submitted via: CDex 1.50beta8
#
DISCID=1902c003
DTITLE=the chang - Round and Round
DYEAR=1900
DGENRE=Other
TTITLE0=Round and Round
TTITLE1=休日〜Holiday〜
TTITLE2=Woo-Sha-Sha(Mellow Vibes)
EXTD=
EXTT0=
EXTT1=
EXTT2=
PLAYORDER=
